# xmcd
#
# Track frame offsets:
#	150
#	16490
#	34357
#	54465
#	82342
#	94882
#	115272
#	127837
#	139365
#	159230
#
# Disc length: 2443 seconds
#
# Revision: 1
# Processed by: cddbd v1.5.1PL0 Copyright (c) Steve Scherf et al.
# Submitted via: CDex 1.50Beta5
#
DISCID=8609890a
DTITLE=ホフディラン - TRIAD Disc 1
DYEAR=2002
DGENRE=Rock
TTITLE0=ホフディラン/MY THING
TTITLE1=In the Soup/檸檬-レモン-
TTITLE2=syrup 16g/神のカルマ
TTITLE3=ROSSO/シャロン
TTITLE4=SOBUT/SOBUT×WE GO!(ENGLISH version)
TTITLE5=RYDERS,THE/NEW RISE
TTITLE6=東京YANKEES/FIREBIRD
TTITLE7=PeteBest,the/bottle gourd
TTITLE8=ロティカ/こんなもんじゃねえだろう2
TTITLE9=YELLOW MONKEY,THE/Jam
EXTD=
EXTT0=
EXTT1=
EXTT2=
EXTT3=
EXTT4=
EXTT5=
EXTT6=
EXTT7=
EXTT8=
EXTT9=
PLAYORDER=
